<?xml version="1.0" standalone="no"?>
<!DOCTYPE svg PUBLIC "-//W3C//DTD SVG 20010904//EN"
 "http://www.w3.org/TR/2001/REC-SVG-20010904/DTD/svg10.dtd">
<svg version="1.0" xmlns="http://www.w3.org/2000/svg"
 width="512.000000pt" height="512.000000pt" viewBox="0 0 512.000000 512.000000"
 preserveAspectRatio="xMidYMid meet">

<g transform="translate(0.000000,512.000000) scale(0.100000,-0.100000)"
fill="#000000" stroke="none">
<path d="M1975 5110 c-352 -39 -648 -182 -901 -434 -180 -181 -287 -352 -364
-585 -70 -210 -73 -247 -78 -795 l-4 -489 24 6 c13 4 44 7 70 7 l47 0 4 493
c4 537 6 558 71 750 130 386 467 720 855 846 202 66 196 66 861 66 597 0 606
0 709 -23 268 -60 491 -182 681 -372 189 -189 311 -414 373 -685 18 -82 21
-132 24 -582 l4 -493 47 0 c26 0 57 -3 70 -7 l24 -6 -5 494 c-5 544 -7 567
-72 774 -73 234 -186 417 -369 601 -223 222 -463 351 -773 416 -103 21 -132
22 -668 24 -308 1 -591 -2 -630 -6z"/>
<path d="M2490 3903 l0 -183 70 0 70 0 0 183 0 182 -70 0 -70 0 0 -182z"/>
<path d="M1565 3196 c-28 -12 -65 -40 -84 -61 -68 -78 -66 -58 -66 -595 l0
-485 23 -47 c29 -58 97 -120 150 -136 52 -16 1878 -17 1934 -2 57 16 119 69
150 129 l28 53 0 487 0 487 -26 52 c-14 29 -42 65 -62 82 -76 62 -34 60 -1061
60 l-936 0 -50 -24z m601 -332 c70 -33 133 -94 171 -166 26 -48 28 -62 28
-158 0 -101 -1 -108 -34 -168 -40 -74 -93 -124 -171 -161 -47 -22 -68 -26
-145 -26 -82 0 -97 3 -157 33 -186 91 -254 310 -156 495 46 85 133 153 232
178 59 16 169 3 232 -27z m1086 3 c74 -34 129 -86 166 -154 98 -185 29 -404
-156 -495 -60 -30 -75 -33 -157 -33 -77 0 -98 4 -145 26 -78 37 -131 87 -171
161 -33 60 -34 67 -34 168 0 96 2 110 28 158 49 94 141 167 241 193 56 15 171
3 228 -24z"/>
<path d="M2188 1464 c-23 -20 -44 -40 -46 -44 -5 -14 115 -135 171 -174 150
-103 344 -103 494 0 51 35 173 157 173 172 0 9 -86 82 -96 82 -4 0 -37 -31
-73 -68 -87 -90 -159 -126 -251 -126 -91 0 -163 36 -251 126 -37 37 -69 68
-72 68 -3 0 -25 -16 -49 -36z"/>
</g>
</svg>
